<svg xmlns="http://www.w3.org/2000/svg" xmlns:xlink="http://www.w3.org/1999/xlink" width="500" zoomAndPan="magnify" viewBox="0 0 375 374.999991" height="500" preserveAspectRatio="xMidYMid meet" version="1.0"><rect x="-37.5" width="450" fill="rgb(100%, 100%, 100%)" y="-37.499999" height="449.999989" fill-opacity="1"/><rect x="-37.5" width="450" fill="rgb(100%, 100%, 100%)" y="-37.499999" height="449.999989" fill-opacity="1"/><rect x="-37.5" width="450" fill="rgb(100%, 100%, 100%)" y="-37.499999" height="449.999989" fill-opacity="1"/><rect x="-37.5" width="450" fill="rgb(100%, 100%, 100%)" y="-37.499999" height="449.999989" fill-opacity="1"/><path fill="rgb(100%, 81.568909%, 29.798889%)" d="M 373.222656 275.074219 C 373.019531 273.582031 372.730469 272.105469 372.355469 270.644531 C 371.980469 269.183594 371.523438 267.753906 370.980469 266.347656 C 370.4375 264.941406 369.816406 263.570312 369.113281 262.234375 C 368.414062 260.902344 367.636719 259.613281 366.78125 258.371094 C 365.929688 257.125 365.007812 255.9375 364.019531 254.800781 C 363.027344 253.664062 361.972656 252.589844 360.859375 251.578125 C 359.742188 250.566406 358.570312 249.621094 357.34375 248.746094 C 356.117188 247.867188 354.84375 247.066406 353.527344 246.339844 L 311.78125 223.105469 C 310.855469 222.597656 309.910156 222.121094 308.945312 221.6875 C 307.980469 221.253906 307 220.859375 306.003906 220.503906 C 305.007812 220.148438 304 219.832031 302.976562 219.558594 C 301.953125 219.285156 300.925781 219.054688 299.882812 218.863281 C 298.84375 218.671875 297.796875 218.527344 296.742188 218.417969 C 295.691406 218.3125 294.636719 218.25 293.578125 218.230469 C 292.523438 218.210938 291.464844 218.230469 290.410156 218.296875 C 289.351562 218.363281 288.300781 218.46875 287.253906 218.617188 C 286.207031 218.769531 285.167969 218.960938 284.136719 219.195312 C 283.105469 219.429688 282.085938 219.703125 281.074219 220.019531 C 280.066406 220.335938 279.070312 220.691406 278.089844 221.089844 C 277.109375 221.488281 276.148438 221.921875 275.203125 222.398438 C 274.257812 222.871094 273.332031 223.382812 272.429688 223.933594 C 271.523438 224.484375 270.644531 225.066406 269.789062 225.6875 C 268.929688 226.308594 268.101562 226.964844 267.296875 227.652344 C 266.492188 228.339844 265.71875 229.058594 264.972656 229.808594 L 249.894531 245.144531 C 249.664062 245.332031 226.40625 263.351562 169.035156 205.964844 C 112.199219 149.132812 129.09375 125.492188 128.964844 125.476562 L 143.613281 111.601562 C 144.4375 110.828125 145.226562 110.019531 145.980469 109.179688 C 146.734375 108.339844 147.457031 107.46875 148.136719 106.566406 C 148.820312 105.667969 149.464844 104.738281 150.070312 103.785156 C 150.679688 102.832031 151.242188 101.855469 151.769531 100.855469 C 152.292969 99.851562 152.777344 98.832031 153.21875 97.792969 C 153.660156 96.75 154.054688 95.695312 154.410156 94.621094 C 154.761719 93.546875 155.070312 92.460938 155.332031 91.359375 C 155.597656 90.261719 155.8125 89.152344 155.984375 88.035156 C 156.15625 86.917969 156.28125 85.796875 156.359375 84.671875 C 156.4375 83.542969 156.46875 82.414062 156.453125 81.285156 C 156.4375 80.152344 156.375 79.027344 156.269531 77.902344 C 156.160156 76.777344 156.003906 75.65625 155.804688 74.546875 C 155.601562 73.433594 155.355469 72.332031 155.0625 71.242188 C 154.769531 70.148438 154.433594 69.070312 154.050781 68.007812 C 153.667969 66.945312 153.242188 65.898438 152.773438 64.867188 C 152.308594 63.839844 151.796875 62.832031 151.246094 61.847656 L 128.660156 21.398438 C 128.292969 20.746094 127.902344 20.105469 127.496094 19.472656 C 127.089844 18.84375 126.664062 18.226562 126.222656 17.621094 C 125.78125 17.015625 125.320312 16.421875 124.84375 15.84375 C 124.371094 15.261719 123.878906 14.699219 123.367188 14.148438 C 122.859375 13.59375 122.335938 13.058594 121.796875 12.539062 C 121.257812 12.015625 120.703125 11.511719 120.136719 11.023438 C 119.566406 10.53125 118.984375 10.058594 118.390625 9.605469 C 117.792969 9.148438 117.1875 8.710938 116.566406 8.289062 C 115.945312 7.867188 115.3125 7.464844 114.671875 7.078125 C 114.027344 6.691406 113.371094 6.328125 112.707031 5.980469 C 112.042969 5.632812 111.371094 5.304688 110.6875 4.996094 C 110.003906 4.683594 109.3125 4.394531 108.609375 4.125 C 107.910156 3.859375 107.203125 3.609375 106.488281 3.378906 C 105.773438 3.152344 105.054688 2.941406 104.328125 2.753906 C 103.601562 2.566406 102.871094 2.402344 102.136719 2.253906 C 101.398438 2.109375 100.660156 1.984375 99.917969 1.882812 C 99.175781 1.777344 98.429688 1.695312 97.683594 1.636719 C 96.933594 1.574219 96.1875 1.535156 95.4375 1.519531 C 94.6875 1.5 93.9375 1.503906 93.1875 1.53125 C 92.4375 1.554688 91.691406 1.601562 90.941406 1.671875 C 90.195312 1.738281 89.453125 1.828125 88.710938 1.9375 C 87.96875 2.050781 87.230469 2.179688 86.496094 2.335938 C 85.761719 2.488281 85.03125 2.660156 84.308594 2.855469 C 83.585938 3.050781 82.867188 3.265625 82.152344 3.503906 C 81.441406 3.738281 80.738281 3.996094 80.039062 4.269531 C 79.34375 4.546875 78.65625 4.84375 77.972656 5.160156 C 77.292969 5.476562 76.625 5.808594 75.960938 6.164062 C 75.300781 6.519531 74.652344 6.890625 74.011719 7.28125 C 73.371094 7.675781 72.742188 8.085938 72.128906 8.511719 C 71.511719 8.9375 70.90625 9.382812 70.316406 9.847656 C 69.726562 10.308594 69.148438 10.785156 68.585938 11.28125 C 68.023438 11.777344 67.472656 12.289062 66.941406 12.816406 L 35.023438 44.730469 C 33.28125 46.484375 31.609375 48.304688 30.011719 50.191406 C 28.414062 52.078125 26.894531 54.023438 25.449219 56.03125 C 24.007812 58.039062 22.644531 60.101562 21.367188 62.21875 C 20.085938 64.332031 18.894531 66.496094 17.785156 68.707031 C 16.679688 70.917969 15.660156 73.167969 14.734375 75.460938 C 13.804688 77.75 12.96875 80.078125 12.226562 82.433594 C 11.484375 84.792969 10.832031 87.175781 10.28125 89.585938 C 9.726562 91.996094 9.269531 94.425781 8.910156 96.871094 C 8.546875 99.316406 8.285156 101.773438 8.121094 104.238281 C 7.953125 106.707031 7.886719 109.175781 7.917969 111.648438 C 7.949219 114.121094 8.078125 116.585938 8.304688 119.050781 C 8.53125 121.511719 8.855469 123.960938 9.28125 126.398438 C 9.703125 128.832031 10.21875 131.25 10.832031 133.644531 C 11.449219 136.039062 12.15625 138.40625 12.957031 140.742188 C 13.761719 143.082031 14.65625 145.386719 15.640625 147.652344 C 16.625 149.921875 17.699219 152.144531 18.863281 154.328125 C 21.839844 163.203125 38.332031 204.695312 104.3125 270.6875 C 170.292969 336.671875 211.796875 353.164062 220.671875 356.136719 C 222.855469 357.300781 225.078125 358.375 227.347656 359.359375 C 229.613281 360.34375 231.917969 361.238281 234.257812 362.039062 C 236.59375 362.84375 238.960938 363.550781 241.355469 364.164062 C 243.753906 364.777344 246.167969 365.296875 248.605469 365.71875 C 251.039062 366.140625 253.488281 366.464844 255.949219 366.691406 C 258.414062 366.917969 260.878906 367.046875 263.351562 367.078125 C 265.824219 367.109375 268.292969 367.042969 270.761719 366.878906 C 273.226562 366.710938 275.683594 366.449219 278.128906 366.089844 C 280.574219 365.726562 283.003906 365.269531 285.414062 364.71875 C 287.824219 364.164062 290.207031 363.515625 292.566406 362.769531 C 294.921875 362.027344 297.246094 361.191406 299.539062 360.265625 C 301.832031 359.335938 304.082031 358.320312 306.292969 357.210938 C 308.503906 356.105469 310.667969 354.910156 312.78125 353.632812 C 314.898438 352.351562 316.960938 350.992188 318.96875 349.546875 C 320.972656 348.105469 322.921875 346.585938 324.808594 344.988281 C 326.695312 343.390625 328.515625 341.71875 330.269531 339.976562 L 362.148438 308.097656 C 363.21875 307.035156 364.222656 305.917969 365.160156 304.738281 C 366.101562 303.5625 366.96875 302.332031 367.765625 301.050781 C 368.5625 299.773438 369.28125 298.453125 369.921875 297.089844 C 370.5625 295.726562 371.125 294.328125 371.601562 292.902344 C 372.082031 291.472656 372.476562 290.019531 372.785156 288.546875 C 373.097656 287.070312 373.320312 285.582031 373.457031 284.082031 C 373.59375 282.582031 373.640625 281.078125 373.601562 279.570312 C 373.5625 278.066406 373.4375 276.566406 373.222656 275.074219 Z M 373.222656 275.074219 " fill-opacity="1" fill-rule="nonzero"/><path fill="rgb(100%, 81.568909%, 29.798889%)" d="M 359.375 184.894531 C 358.519531 184.894531 357.671875 184.8125 356.835938 184.648438 C 355.996094 184.480469 355.179688 184.234375 354.390625 183.90625 C 353.601562 183.578125 352.851562 183.179688 352.140625 182.703125 C 351.429688 182.230469 350.769531 181.6875 350.164062 181.085938 C 349.5625 180.480469 349.019531 179.820312 348.546875 179.109375 C 348.070312 178.398438 347.671875 177.648438 347.34375 176.859375 C 347.015625 176.070312 346.769531 175.253906 346.601562 174.414062 C 346.4375 173.578125 346.355469 172.730469 346.355469 171.875 C 346.351562 169.53125 346.292969 167.191406 346.175781 164.847656 C 346.054688 162.507812 345.882812 160.171875 345.648438 157.839844 C 345.417969 155.507812 345.128906 153.183594 344.78125 150.867188 C 344.4375 148.550781 344.035156 146.242188 343.574219 143.945312 C 343.117188 141.644531 342.601562 139.359375 342.03125 137.085938 C 341.457031 134.816406 340.832031 132.558594 340.152344 130.316406 C 339.46875 128.074219 338.730469 125.851562 337.941406 123.644531 C 337.152344 121.4375 336.304688 119.253906 335.40625 117.089844 C 334.511719 114.925781 333.558594 112.78125 332.558594 110.664062 C 331.554688 108.546875 330.5 106.457031 329.394531 104.390625 C 328.289062 102.324219 327.132812 100.285156 325.925781 98.277344 C 324.722656 96.265625 323.46875 94.289062 322.164062 92.339844 C 320.863281 90.390625 319.515625 88.476562 318.117188 86.59375 C 316.722656 84.710938 315.28125 82.867188 313.792969 81.054688 C 312.304688 79.242188 310.777344 77.46875 309.203125 75.734375 C 307.628906 73.996094 306.011719 72.300781 304.355469 70.644531 C 302.699219 68.988281 301.003906 67.371094 299.265625 65.796875 C 297.53125 64.222656 295.757812 62.695312 293.945312 61.207031 C 292.132812 59.71875 290.289062 58.277344 288.40625 56.882812 C 286.523438 55.484375 284.609375 54.136719 282.660156 52.835938 C 280.710938 51.53125 278.734375 50.277344 276.722656 49.070312 C 274.714844 47.867188 272.675781 46.710938 270.609375 45.605469 C 268.542969 44.5 266.453125 43.445312 264.335938 42.441406 C 262.21875 41.441406 260.074219 40.488281 257.910156 39.589844 C 255.746094 38.695312 253.5625 37.847656 251.355469 37.058594 C 249.148438 36.269531 246.925781 35.53125 244.683594 34.847656 C 242.441406 34.167969 240.183594 33.542969 237.914062 32.96875 C 235.640625 32.398438 233.355469 31.882812 231.054688 31.425781 C 228.757812 30.964844 226.449219 30.5625 224.132812 30.21875 C 221.816406 29.871094 219.492188 29.582031 217.160156 29.351562 C 214.828125 29.117188 212.492188 28.945312 210.152344 28.824219 C 207.808594 28.707031 205.46875 28.648438 203.125 28.644531 C 202.269531 28.644531 201.421875 28.5625 200.585938 28.394531 C 199.746094 28.230469 198.933594 27.980469 198.140625 27.65625 C 197.351562 27.328125 196.601562 26.925781 195.890625 26.453125 C 195.179688 25.976562 194.523438 25.4375 193.917969 24.832031 C 193.3125 24.226562 192.773438 23.570312 192.296875 22.859375 C 191.824219 22.148438 191.421875 21.398438 191.09375 20.609375 C 190.769531 19.816406 190.519531 19.003906 190.355469 18.164062 C 190.1875 17.328125 190.105469 16.480469 190.105469 15.625 C 190.105469 14.769531 190.1875 13.921875 190.355469 13.085938 C 190.519531 12.246094 190.769531 11.433594 191.09375 10.640625 C 191.421875 9.851562 191.824219 9.101562 192.296875 8.390625 C 192.773438 7.679688 193.3125 7.023438 193.917969 6.417969 C 194.523438 5.8125 195.179688 5.273438 195.890625 4.796875 C 196.601562 4.324219 197.351562 3.921875 198.140625 3.59375 C 198.933594 3.269531 199.746094 3.019531 200.585938 2.855469 C 201.421875 2.6875 202.269531 2.605469 203.125 2.605469 C 205.894531 2.605469 208.660156 2.679688 211.429688 2.816406 C 214.195312 2.957031 216.953125 3.164062 219.710938 3.4375 C 222.464844 3.710938 225.214844 4.054688 227.953125 4.460938 C 230.691406 4.871094 233.417969 5.347656 236.132812 5.890625 C 238.851562 6.433594 241.550781 7.039062 244.238281 7.714844 C 246.921875 8.390625 249.589844 9.132812 252.238281 9.9375 C 254.890625 10.742188 257.519531 11.613281 260.125 12.546875 C 262.730469 13.480469 265.3125 14.480469 267.871094 15.542969 C 270.429688 16.601562 272.960938 17.726562 275.464844 18.910156 C 277.964844 20.097656 280.4375 21.34375 282.878906 22.648438 C 285.320312 23.957031 287.730469 25.320312 290.105469 26.746094 C 292.480469 28.171875 294.816406 29.652344 297.121094 31.191406 C 299.421875 32.730469 301.6875 34.324219 303.910156 35.976562 C 306.132812 37.625 308.316406 39.328125 310.457031 41.085938 C 312.597656 42.84375 314.691406 44.652344 316.746094 46.511719 C 318.796875 48.371094 320.800781 50.28125 322.761719 52.238281 C 324.71875 54.199219 326.628906 56.203125 328.488281 58.253906 C 330.347656 60.308594 332.15625 62.402344 333.914062 64.542969 C 335.671875 66.683594 337.375 68.867188 339.023438 71.089844 C 340.675781 73.3125 342.269531 75.578125 343.808594 77.878906 C 345.347656 80.179688 346.828125 82.519531 348.253906 84.894531 C 349.679688 87.269531 351.042969 89.679688 352.351562 92.121094 C 353.65625 94.5625 354.902344 97.035156 356.089844 99.535156 C 357.273438 102.039062 358.398438 104.570312 359.457031 107.128906 C 360.519531 109.6875 361.519531 112.269531 362.453125 114.875 C 363.386719 117.480469 364.257812 120.109375 365.0625 122.761719 C 365.867188 125.410156 366.609375 128.078125 367.285156 130.761719 C 367.960938 133.449219 368.566406 136.148438 369.109375 138.867188 C 369.652344 141.582031 370.128906 144.308594 370.539062 147.046875 C 370.945312 149.785156 371.289062 152.535156 371.5625 155.289062 C 371.835938 158.046875 372.042969 160.804688 372.183594 163.570312 C 372.320312 166.339844 372.390625 169.105469 372.394531 171.875 C 372.394531 172.730469 372.3125 173.578125 372.148438 174.414062 C 371.980469 175.253906 371.734375 176.070312 371.40625 176.859375 C 371.078125 177.648438 370.679688 178.398438 370.203125 179.109375 C 369.730469 179.820312 369.1875 180.480469 368.585938 181.085938 C 367.980469 181.6875 367.320312 182.230469 366.609375 182.703125 C 365.898438 183.179688 365.148438 183.578125 364.359375 183.90625 C 363.570312 184.234375 362.753906 184.480469 361.914062 184.648438 C 361.078125 184.8125 360.230469 184.894531 359.375 184.894531 Z M 359.375 184.894531 " fill-opacity="1" fill-rule="nonzero"/><path fill="rgb(100%, 81.568909%, 29.798889%)" d="M 309.65625 184.894531 C 308.800781 184.894531 307.953125 184.8125 307.117188 184.648438 C 306.277344 184.480469 305.460938 184.234375 304.671875 183.90625 C 303.882812 183.578125 303.132812 183.179688 302.421875 182.703125 C 301.710938 182.230469 301.050781 181.6875 300.449219 181.085938 C 299.84375 180.480469 299.304688 179.820312 298.828125 179.109375 C 298.351562 178.398438 297.953125 177.648438 297.625 176.859375 C 297.296875 176.070312 297.050781 175.253906 296.886719 174.414062 C 296.71875 173.578125 296.636719 172.730469 296.636719 171.875 C 296.632812 170.34375 296.59375 168.816406 296.519531 167.289062 C 296.441406 165.761719 296.328125 164.234375 296.175781 162.710938 C 296.023438 161.191406 295.835938 159.671875 295.609375 158.160156 C 295.382812 156.644531 295.121094 155.140625 294.820312 153.640625 C 294.523438 152.140625 294.1875 150.648438 293.8125 149.164062 C 293.441406 147.679688 293.03125 146.207031 292.585938 144.742188 C 292.140625 143.277344 291.660156 141.828125 291.144531 140.386719 C 290.628906 138.945312 290.074219 137.519531 289.488281 136.105469 C 288.902344 134.691406 288.28125 133.296875 287.628906 131.914062 C 286.972656 130.53125 286.285156 129.164062 285.5625 127.816406 C 284.839844 126.464844 284.085938 125.136719 283.300781 123.824219 C 282.511719 122.511719 281.695312 121.21875 280.84375 119.949219 C 279.992188 118.675781 279.113281 117.425781 278.199219 116.199219 C 277.289062 114.96875 276.347656 113.761719 275.378906 112.582031 C 274.40625 111.398438 273.40625 110.242188 272.378906 109.105469 C 271.351562 107.972656 270.296875 106.867188 269.214844 105.785156 C 268.132812 104.703125 267.027344 103.648438 265.894531 102.621094 C 264.757812 101.59375 263.601562 100.59375 262.417969 99.621094 C 261.238281 98.652344 260.03125 97.710938 258.800781 96.800781 C 257.574219 95.886719 256.324219 95.007812 255.050781 94.15625 C 253.78125 93.304688 252.488281 92.488281 251.175781 91.699219 C 249.863281 90.914062 248.535156 90.160156 247.183594 89.4375 C 245.835938 88.714844 244.46875 88.027344 243.085938 87.371094 C 241.703125 86.71875 240.308594 86.097656 238.894531 85.511719 C 237.480469 84.925781 236.054688 84.371094 234.613281 83.855469 C 233.171875 83.339844 231.722656 82.859375 230.257812 82.414062 C 228.792969 81.96875 227.320312 81.558594 225.835938 81.1875 C 224.351562 80.8125 222.859375 80.476562 221.359375 80.179688 C 219.859375 79.878906 218.355469 79.617188 216.839844 79.390625 C 215.328125 79.164062 213.808594 78.976562 212.289062 78.824219 C 210.765625 78.671875 209.238281 78.558594 207.710938 78.480469 C 206.183594 78.40625 204.65625 78.367188 203.125 78.363281 C 202.269531 78.363281 201.421875 78.28125 200.585938 78.113281 C 199.746094 77.945312 198.933594 77.699219 198.140625 77.371094 C 197.351562 77.046875 196.601562 76.644531 195.890625 76.167969 C 195.179688 75.695312 194.523438 75.15625 193.917969 74.550781 C 193.3125 73.945312 192.773438 73.289062 192.296875 72.578125 C 191.824219 71.867188 191.421875 71.117188 191.09375 70.324219 C 190.769531 69.535156 190.519531 68.722656 190.355469 67.882812 C 190.1875 67.042969 190.105469 66.199219 190.105469 65.34375 C 190.105469 64.488281 190.1875 63.640625 190.355469 62.804688 C 190.519531 61.964844 190.769531 61.148438 191.09375 60.359375 C 191.421875 59.570312 191.824219 58.820312 192.296875 58.109375 C 192.773438 57.398438 193.3125 56.742188 193.917969 56.136719 C 194.523438 55.53125 195.179688 54.992188 195.890625 54.515625 C 196.601562 54.042969 197.351562 53.640625 198.140625 53.3125 C 198.933594 52.988281 199.746094 52.738281 200.585938 52.574219 C 201.421875 52.40625 202.269531 52.324219 203.125 52.324219 C 205.082031 52.324219 207.035156 52.375 208.988281 52.472656 C 210.941406 52.570312 212.890625 52.71875 214.839844 52.910156 C 216.785156 53.105469 218.726562 53.34375 220.660156 53.632812 C 222.59375 53.921875 224.519531 54.257812 226.4375 54.644531 C 228.355469 55.027344 230.265625 55.457031 232.160156 55.933594 C 234.058594 56.410156 235.941406 56.933594 237.8125 57.5 C 239.683594 58.070312 241.542969 58.683594 243.382812 59.34375 C 245.222656 60.003906 247.046875 60.710938 248.855469 61.460938 C 250.660156 62.210938 252.449219 63.003906 254.214844 63.839844 C 255.984375 64.675781 257.730469 65.558594 259.453125 66.480469 C 261.179688 67.402344 262.878906 68.367188 264.558594 69.375 C 266.234375 70.378906 267.886719 71.425781 269.511719 72.511719 C 271.136719 73.601562 272.734375 74.726562 274.308594 75.890625 C 275.878906 77.058594 277.417969 78.261719 278.929688 79.503906 C 280.441406 80.742188 281.921875 82.019531 283.371094 83.335938 C 284.820312 84.648438 286.238281 85.996094 287.621094 87.378906 C 289.003906 88.761719 290.351562 90.179688 291.664062 91.628906 C 292.980469 93.078125 294.257812 94.558594 295.496094 96.070312 C 296.738281 97.582031 297.941406 99.121094 299.109375 100.691406 C 300.273438 102.265625 301.398438 103.863281 302.488281 105.488281 C 303.574219 107.113281 304.621094 108.765625 305.625 110.441406 C 306.632812 112.121094 307.597656 113.820312 308.519531 115.546875 C 309.441406 117.269531 310.324219 119.015625 311.160156 120.785156 C 311.996094 122.550781 312.789062 124.339844 313.539062 126.144531 C 314.289062 127.953125 314.996094 129.777344 315.65625 131.617188 C 316.316406 133.457031 316.929688 135.316406 317.5 137.1875 C 318.066406 139.058594 318.589844 140.941406 319.066406 142.839844 C 319.542969 144.734375 319.972656 146.644531 320.355469 148.5625 C 320.742188 150.480469 321.078125 152.40625 321.367188 154.339844 C 321.652344 156.273438 321.894531 158.214844 322.089844 160.160156 C 322.28125 162.109375 322.429688 164.058594 322.527344 166.011719 C 322.625 167.964844 322.675781 169.917969 322.675781 171.875 C 322.679688 172.730469 322.59375 173.578125 322.429688 174.414062 C 322.261719 175.253906 322.015625 176.070312 321.6875 176.859375 C 321.363281 177.648438 320.960938 178.398438 320.484375 179.109375 C 320.011719 179.820312 319.472656 180.480469 318.867188 181.085938 C 318.261719 181.6875 317.605469 182.230469 316.890625 182.703125 C 316.179688 183.179688 315.429688 183.578125 314.640625 183.90625 C 313.851562 184.234375 313.035156 184.480469 312.199219 184.648438 C 311.359375 184.8125 310.511719 184.894531 309.65625 184.894531 Z M 309.65625 184.894531 " fill-opacity="1" fill-rule="nonzero"/><path fill="rgb(100%, 81.568909%, 29.798889%)" d="M 267.046875 184.894531 C 266.191406 184.894531 265.34375 184.8125 264.503906 184.648438 C 263.667969 184.480469 262.851562 184.234375 262.0625 183.90625 C 261.273438 183.578125 260.523438 183.179688 259.8125 182.703125 C 259.101562 182.230469 258.441406 181.6875 257.835938 181.085938 C 257.234375 180.480469 256.691406 179.820312 256.21875 179.109375 C 255.742188 178.398438 255.34375 177.648438 255.015625 176.859375 C 254.6875 176.070312 254.441406 175.253906 254.273438 174.414062 C 254.109375 173.578125 254.023438 172.730469 254.027344 171.875 C 254.023438 170.207031 253.941406 168.546875 253.773438 166.886719 C 253.609375 165.230469 253.363281 163.582031 253.039062 161.949219 C 252.710938 160.316406 252.304688 158.699219 251.820312 157.105469 C 251.335938 155.511719 250.773438 153.945312 250.132812 152.40625 C 249.496094 150.867188 248.785156 149.363281 247.996094 147.894531 C 247.210938 146.421875 246.355469 144.996094 245.429688 143.609375 C 244.503906 142.226562 243.511719 140.886719 242.453125 139.601562 C 241.394531 138.3125 240.277344 137.078125 239.097656 135.902344 C 237.921875 134.722656 236.6875 133.605469 235.398438 132.546875 C 234.113281 131.488281 232.773438 130.496094 231.390625 129.570312 C 230.003906 128.644531 228.578125 127.789062 227.105469 127.003906 C 225.636719 126.214844 224.132812 125.503906 222.59375 124.867188 C 221.054688 124.226562 219.488281 123.664062 217.894531 123.179688 C 216.300781 122.695312 214.683594 122.289062 213.050781 121.960938 C 211.417969 121.636719 209.769531 121.390625 208.113281 121.226562 C 206.453125 121.058594 204.792969 120.976562 203.125 120.972656 C 202.269531 120.972656 201.421875 120.890625 200.585938 120.722656 C 199.746094 120.558594 198.933594 120.308594 198.140625 119.984375 C 197.351562 119.65625 196.601562 119.253906 195.890625 118.78125 C 195.179688 118.304688 194.523438 117.765625 193.917969 117.160156 C 193.3125 116.554688 192.773438 115.898438 192.296875 115.1875 C 191.824219 114.476562 191.421875 113.726562 191.09375 112.9375 C 190.769531 112.144531 190.519531 111.332031 190.355469 110.492188 C 190.1875 109.65625 190.105469 108.808594 190.105469 107.953125 C 190.105469 107.097656 190.1875 106.25 190.355469 105.414062 C 190.519531 104.574219 190.769531 103.761719 191.09375 102.96875 C 191.421875 102.179688 191.824219 101.429688 192.296875 100.71875 C 192.773438 100.007812 193.3125 99.351562 193.917969 98.746094 C 194.523438 98.140625 195.179688 97.601562 195.890625 97.125 C 196.601562 96.652344 197.351562 96.25 198.140625 95.921875 C 198.933594 95.597656 199.746094 95.347656 200.585938 95.183594 C 201.421875 95.015625 202.269531 94.933594 203.125 94.933594 C 204.382812 94.933594 205.640625 94.964844 206.898438 95.027344 C 208.15625 95.09375 209.410156 95.1875 210.664062 95.308594 C 211.917969 95.433594 213.164062 95.589844 214.410156 95.777344 C 215.65625 95.960938 216.894531 96.175781 218.128906 96.425781 C 219.363281 96.671875 220.59375 96.949219 221.8125 97.253906 C 223.035156 97.5625 224.246094 97.898438 225.453125 98.261719 C 226.65625 98.628906 227.851562 99.023438 229.035156 99.449219 C 230.21875 99.875 231.394531 100.328125 232.558594 100.8125 C 233.71875 101.292969 234.871094 101.804688 236.007812 102.34375 C 237.144531 102.882812 238.269531 103.449219 239.378906 104.042969 C 240.488281 104.636719 241.585938 105.253906 242.664062 105.902344 C 243.742188 106.550781 244.804688 107.222656 245.851562 107.925781 C 246.898438 108.625 247.929688 109.347656 248.9375 110.097656 C 249.949219 110.847656 250.941406 111.625 251.914062 112.421875 C 252.886719 113.222656 253.839844 114.042969 254.773438 114.886719 C 255.707031 115.734375 256.617188 116.601562 257.507812 117.492188 C 258.398438 118.382812 259.265625 119.292969 260.113281 120.226562 C 260.957031 121.160156 261.777344 122.113281 262.578125 123.085938 C 263.375 124.058594 264.152344 125.050781 264.902344 126.0625 C 265.652344 127.070312 266.375 128.101562 267.074219 129.148438 C 267.777344 130.195312 268.449219 131.257812 269.097656 132.335938 C 269.746094 133.414062 270.363281 134.511719 270.957031 135.621094 C 271.550781 136.730469 272.117188 137.855469 272.65625 138.992188 C 273.195312 140.128906 273.707031 141.28125 274.1875 142.441406 C 274.671875 143.605469 275.125 144.78125 275.550781 145.964844 C 275.976562 147.148438 276.371094 148.34375 276.738281 149.546875 C 277.101562 150.753906 277.4375 151.964844 277.746094 153.1875 C 278.050781 154.40625 278.328125 155.636719 278.574219 156.871094 C 278.824219 158.105469 279.039062 159.34375 279.222656 160.589844 C 279.410156 161.835938 279.566406 163.082031 279.691406 164.335938 C 279.8125 165.589844 279.90625 166.84375 279.972656 168.101562 C 280.035156 169.359375 280.066406 170.617188 280.066406 171.875 C 280.066406 172.730469 279.984375 173.578125 279.820312 174.414062 C 279.652344 175.253906 279.40625 176.070312 279.078125 176.859375 C 278.75 177.648438 278.351562 178.398438 277.875 179.109375 C 277.398438 179.820312 276.859375 180.480469 276.257812 181.085938 C 275.652344 181.6875 274.992188 182.230469 274.28125 182.703125 C 273.570312 183.179688 272.820312 183.578125 272.03125 183.90625 C 271.242188 184.234375 270.425781 184.480469 269.585938 184.648438 C 268.75 184.8125 267.902344 184.894531 267.046875 184.894531 Z M 267.046875 184.894531 " fill-opacity="1" fill-rule="nonzero"/><path fill="rgb(100%, 81.568909%, 29.798889%)" d="M 359.375 184.894531 C 358.519531 184.894531 357.671875 184.8125 356.835938 184.648438 C 355.996094 184.480469 355.179688 184.234375 354.390625 183.90625 C 353.601562 183.578125 352.851562 183.179688 352.140625 182.703125 C 351.429688 182.230469 350.769531 181.6875 350.164062 181.085938 C 349.5625 180.480469 349.019531 179.820312 348.546875 179.109375 C 348.070312 178.398438 347.671875 177.648438 347.34375 176.859375 C 347.015625 176.070312 346.769531 175.253906 346.601562 174.414062 C 346.4375 173.578125 346.355469 172.730469 346.355469 171.875 C 346.351562 169.53125 346.292969 167.191406 346.175781 164.847656 C 346.054688 162.507812 345.882812 160.171875 345.648438 157.839844 C 345.417969 155.507812 345.128906 153.183594 344.78125 150.867188 C 344.4375 148.550781 344.035156 146.242188 343.574219 143.945312 C 343.117188 141.644531 342.601562 139.359375 342.03125 137.085938 C 341.457031 134.816406 340.832031 132.558594 340.152344 130.316406 C 339.46875 128.074219 338.730469 125.851562 337.941406 123.644531 C 337.152344 121.4375 336.304688 119.253906 335.40625 117.089844 C 334.511719 114.925781 333.558594 112.78125 332.558594 110.664062 C 331.554688 108.546875 330.5 106.457031 329.394531 104.390625 C 328.289062 102.324219 327.132812 100.285156 325.925781 98.277344 C 324.722656 96.265625 323.46875 94.289062 322.164062 92.339844 C 320.863281 90.390625 319.515625 88.476562 318.117188 86.59375 C 316.722656 84.710938 315.28125 82.867188 313.792969 81.054688 C 312.304688 79.242188 310.777344 77.46875 309.203125 75.734375 C 307.628906 73.996094 306.011719 72.300781 304.355469 70.644531 C 302.699219 68.988281 301.003906 67.371094 299.265625 65.796875 C 297.53125 64.222656 295.757812 62.695312 293.945312 61.207031 C 292.132812 59.71875 290.289062 58.277344 288.40625 56.882812 C 286.523438 55.484375 284.609375 54.136719 282.660156 52.835938 C 280.710938 51.53125 278.734375 50.277344 276.722656 49.070312 C 274.714844 47.867188 272.675781 46.710938 270.609375 45.605469 C 268.542969 44.5 266.453125 43.445312 264.335938 42.441406 C 262.21875 41.441406 260.074219 40.488281 257.910156 39.589844 C 255.746094 38.695312 253.5625 37.847656 251.355469 37.058594 C 249.148438 36.269531 246.925781 35.53125 244.683594 34.847656 C 242.441406 34.167969 240.183594 33.542969 237.914062 32.96875 C 235.640625 32.398438 233.355469 31.882812 231.054688 31.425781 C 228.757812 30.964844 226.449219 30.5625 224.132812 30.21875 C 221.816406 29.871094 219.492188 29.582031 217.160156 29.351562 C 214.828125 29.117188 212.492188 28.945312 210.152344 28.824219 C 207.808594 28.707031 205.46875 28.648438 203.125 28.644531 C 202.269531 28.644531 201.421875 28.5625 200.585938 28.394531 C 199.746094 28.230469 198.933594 27.980469 198.140625 27.65625 C 197.351562 27.328125 196.601562 26.925781 195.890625 26.453125 C 195.179688 25.976562 194.523438 25.4375 193.917969 24.832031 C 193.3125 24.226562 192.773438 23.570312 192.296875 22.859375 C 191.824219 22.148438 191.421875 21.398438 191.09375 20.609375 C 190.769531 19.816406 190.519531 19.003906 190.355469 18.164062 C 190.1875 17.328125 190.105469 16.480469 190.105469 15.625 C 190.105469 14.769531 190.1875 13.921875 190.355469 13.085938 C 190.519531 12.246094 190.769531 11.433594 191.09375 10.640625 C 191.421875 9.851562 191.824219 9.101562 192.296875 8.390625 C 192.773438 7.679688 193.3125 7.023438 193.917969 6.417969 C 194.523438 5.8125 195.179688 5.273438 195.890625 4.796875 C 196.601562 4.324219 197.351562 3.921875 198.140625 3.59375 C 198.933594 3.269531 199.746094 3.019531 200.585938 2.855469 C 201.421875 2.6875 202.269531 2.605469 203.125 2.605469 C 205.894531 2.605469 208.660156 2.679688 211.429688 2.816406 C 214.195312 2.957031 216.953125 3.164062 219.710938 3.4375 C 222.464844 3.710938 225.214844 4.054688 227.953125 4.460938 C 230.691406 4.871094 233.417969 5.347656 236.132812 5.890625 C 238.851562 6.433594 241.550781 7.039062 244.238281 7.714844 C 246.921875 8.390625 249.589844 9.132812 252.238281 9.9375 C 254.890625 10.742188 257.519531 11.613281 260.125 12.546875 C 262.730469 13.480469 265.3125 14.480469 267.871094 15.542969 C 270.429688 16.601562 272.960938 17.726562 275.464844 18.910156 C 277.964844 20.097656 280.4375 21.34375 282.878906 22.648438 C 285.320312 23.957031 287.730469 25.320312 290.105469 26.746094 C 292.480469 28.171875 294.816406 29.652344 297.121094 31.191406 C 299.421875 32.730469 301.6875 34.324219 303.910156 35.976562 C 306.132812 37.625 308.316406 39.328125 310.457031 41.085938 C 312.597656 42.84375 314.691406 44.652344 316.746094 46.511719 C 318.796875 48.371094 320.800781 50.28125 322.761719 52.238281 C 324.71875 54.199219 326.628906 56.203125 328.488281 58.253906 C 330.347656 60.308594 332.15625 62.402344 333.914062 64.542969 C 335.671875 66.683594 337.375 68.867188 339.023438 71.089844 C 340.675781 73.3125 342.269531 75.578125 343.808594 77.878906 C 345.347656 80.179688 346.828125 82.519531 348.253906 84.894531 C 349.679688 87.269531 351.042969 89.679688 352.351562 92.121094 C 353.65625 94.5625 354.902344 97.035156 356.089844 99.535156 C 357.273438 102.039062 358.398438 104.570312 359.457031 107.128906 C 360.519531 109.6875 361.519531 112.269531 362.453125 114.875 C 363.386719 117.480469 364.257812 120.109375 365.0625 122.761719 C 365.867188 125.410156 366.609375 128.078125 367.285156 130.761719 C 367.960938 133.449219 368.566406 136.148438 369.109375 138.867188 C 369.652344 141.582031 370.128906 144.308594 370.539062 147.046875 C 370.945312 149.785156 371.289062 152.535156 371.5625 155.289062 C 371.835938 158.046875 372.042969 160.804688 372.183594 163.570312 C 372.320312 166.339844 372.390625 169.105469 372.394531 171.875 C 372.394531 172.730469 372.3125 173.578125 372.148438 174.414062 C 371.980469 175.253906 371.734375 176.070312 371.40625 176.859375 C 371.078125 177.648438 370.679688 178.398438 370.203125 179.109375 C 369.730469 179.820312 369.1875 180.480469 368.585938 181.085938 C 367.980469 181.6875 367.320312 182.230469 366.609375 182.703125 C 365.898438 183.179688 365.148438 183.578125 364.359375 183.90625 C 363.570312 184.234375 362.753906 184.480469 361.914062 184.648438 C 361.078125 184.8125 360.230469 184.894531 359.375 184.894531 Z M 359.375 184.894531 " fill-opacity="1" fill-rule="nonzero"/></svg>