<svg version="1.1" xmlns="http://www.w3.org/2000/svg" width="481" height="512" viewBox="0 0 481 512"><title>key</title><path d="M237.714 146.286c0-30.285-24.572-54.857-54.857-54.857s-54.857 24.572-54.857 54.857c0 8.286 2 16.286 5.428 23.714-7.428-3.429-15.428-5.428-23.715-5.428-30.285 0-54.857 24.572-54.857 54.857s24.572 54.857 54.857 54.857 54.857-24.572 54.857-54.857c0-8.286-2-16.285-5.428-23.715 7.428 3.429 15.428 5.428 23.714 5.428 30.286 0 54.857-24.572 54.857-54.857zM480.857 347.428c0 6.572-26.286 32.857-32.857 32.857-7.428 0-30.572-26.857-36.572-32.857l-27.428 27.428 62.857 62.857c5.143 5.143 8 12.286 8 19.428 0 16-18.286 34.286-34.286 34.286-7.143 0-14.286-2.857-19.428-8l-191.714-191.714c-30 22.286-66.572 37.428-104.285 37.428-62.285 0-105.143-43.143-105.143-105.143 0-93.715 93.715-187.429 187.428-187.429 62 0 105.143 42.857 105.143 105.143 0 37.715-15.143 74.285-37.428 104.285l101.428 101.428 27.428-27.428c-6-6-32.857-29.143-32.857-36.572 0-6.572 26.286-32.857 32.857-32.857 2.286 0 4.857 1.143 6.572 2.857 10.572 10.572 90.286 85.714 90.286 94z"></path></svg>